<svg width="637" height="241" viewBox="0 0 637 241" fill="none" xmlns="http://www.w3.org/2000/svg">
<path fill-rule="evenodd" clip-rule="evenodd" d="M183.388 33.335L183.534 33.4805V98.7627L164.13 118.166L183.534 137.57V207.378L150.054 240.859H0V0H150.054L183.388 33.335ZM38.2139 136.27V202.646H143.812V136.27H38.2139ZM38.2139 97.0469H143.812V36.7051H38.2139V97.0469Z" fill="#00BE65"/>
<path fill-rule="evenodd" clip-rule="evenodd" d="M462.198 67.2695L463.299 66.6348L513.081 152.86L511.98 153.495L513.081 154.131L463.299 240.355L462.198 239.72V240.991H362.634V239.72L361.533 240.355L311.752 154.131L312.852 153.495L311.752 152.86L361.533 66.6348L362.634 67.2695V66H462.198V67.2695ZM383.232 102.205V102.949L382.587 102.577L353.404 153.123L354.05 153.496L353.406 153.868L382.589 204.413L383.232 204.041V204.786H441.598V204.04L442.242 204.413L471.425 153.868L470.78 153.496L471.427 153.123L442.244 102.577L441.598 102.95V102.205H383.232Z" fill="#60BE00"/>
<path d="M325.269 103.222H259.047L259.047 139.427H286.047V178.649H259.047L259.047 241H220.047L220.047 178.649H195.534V139.427H220.047L220.047 103.222H219.671L249.842 64H325.269V103.222Z" fill="#00BE65"/>
<path d="M563.431 241H526.598V90.6479L551.485 66H636.598L602.254 100.014H563.431V241Z" fill="#00BE65"/>
</svg>
